<?xml version="1.0" encoding="UTF-8"?>
<svg xmlns="http://www.w3.org/2000/svg" viewBox="0 0 1920 1078">
  <defs>
    <style>
      .cls-1 {
        fill: #fe9967;
      }

      .cls-2 {
        fill: #fff;
      }

      .cls-3 {
        fill: #e2e2e2;
      }

      .cls-4 {
        fill: #9ac181;
      }

      .cls-5 {
        letter-spacing: 0em;
      }

      .cls-6 {
        letter-spacing: 0em;
      }

      .cls-7 {
        fill: #f8f9fe;
      }

      .cls-8 {
        fill: #2f184b;
      }

      .cls-9 {
        fill: #a7d08c;
      }

      .cls-10 {
        fill: #d3d3d3;
      }

      .cls-11 {
        fill: #e9eded;
      }

      .cls-12 {
        fill: #ef8759;
      }

      .cls-13 {
        fill: #ffac88;
      }

      .cls-14 {
        font-size: 98.69px;
      }

      .cls-14, .cls-15, .cls-16 {
        font-family: Elephant-Regular, Elephant;
      }

      .cls-15 {
        font-size: 135.45px;
      }

      .cls-17 {
        fill: #badda4;
      }

      .cls-16 {
        font-size: 119.54px;
      }

      .cls-18 {
        fill: #ededed;
      }
    </style>
  </defs>
  <g id="Layer_1" data-name="Layer 1">
    <rect class="cls-7" width="1920" height="1078"/>
  </g>
  <g id="Layer_2" data-name="Layer 2">
    <g id="Books">
      <path class="cls-9" d="M104.18,1038.35h0c9.95,14.86,27.5,20.55,39.19,12.72l141.93-95.08c3.98-2.67,9.95-.73,13.34,4.33h0c3.39,5.06,2.91,11.32-1.07,13.98l-145.48,97.46c-18.87,12.64-47.4,5.53-64.73-17.52-9.95-13.24-14.27-28.6-13.28-42.14,.96-12.51,6.48-23.51,16.31-30.09l146.56-98.18c3.98-2.67,9.95-.73,13.34,4.33l.03,.05c3.39,5.06,2.91,11.32-1.07,13.98l-141.93,95.08c-11.69,7.83-13.1,26.23-3.15,41.09Z"/>
      <path class="cls-17" d="M250.28,888.15l.05,.07c1.89,2.82,2.57,6,2.13,8.73-2.14-.51-4.29-.26-6.07,.93l-146.58,98.2c-9.81,6.57-15.32,17.58-16.31,30.09-.75,10.11,1.5,21.24,6.81,31.68-1.01-1.16-1.97-2.36-2.93-3.61-9.96-13.24-14.3-28.6-13.29-42.12,.96-12.54,6.49-23.51,16.31-30.09l146.58-98.2c3.97-2.66,9.93-.73,13.31,4.32Z"/>
      <path class="cls-4" d="M298.62,960.31c1.7,2.54,2.41,5.35,2.24,7.91-.19,2.52-1.29,4.74-3.29,6.08l-145.5,97.47c-18.87,12.64-47.38,5.51-64.72-17.57-2.54-3.38-4.71-6.85-6.48-10.44,17.46,20.16,43.93,25.87,61.77,13.92l145.5-97.47c1.76-1.18,2.82-3.04,3.19-5.17,2.7,.58,5.4,2.45,7.29,5.27Z"/>
      <path class="cls-18" d="M246.44,904.06c5.84,19.77,18.8,37.42,36.05,53.81l-139.12,93.2c-11.69,7.83-29.24,2.14-39.19-12.72h0c-9.95-14.86-8.55-33.25,3.15-41.09l139.12-93.2Z"/>
      <path class="cls-1" d="M216.05,897.82l-134.52,90.12c-3.98,2.67-9.95,.73-13.34-4.33l-.03-.05c-3.39-5.06-2.91-11.32,1.07-13.98l126.7-84.88c2.67-1.79,2.99-5.99,.72-9.38l-27.82-41.52c-2.27-3.39-6.28-4.69-8.95-2.9l-126.7,84.88c-3.98,2.67-9.95,.73-13.34-4.33h0c-3.39-5.06-2.91-11.32,1.07-13.98l134.52-90.12c6.51-4.36,16.27-1.19,21.81,7.08l40.56,60.55c5.54,8.27,4.75,18.5-1.75,22.86Z"/>
      <path class="cls-13" d="M177.24,814.44l8.06,12.02c-5.55-8.28-15.31-11.45-21.8-7.1L28.97,909.48c-1.97,1.32-3.09,3.57-3.31,6.1-.02,.21-.04,.47,0,.7-2.19-.87-4.27-2.52-5.84-4.85-1.7-2.54-2.41-5.35-2.22-7.87,.22-2.54,1.34-4.78,3.31-6.1l134.53-90.12c6.49-4.35,16.25-1.18,21.8,7.1Z"/>
      <path class="cls-12" d="M209.73,862.93l8.06,12.02c5.52,8.25,4.76,18.51-1.73,22.86l-134.53,90.12c-3.97,2.66-9.98,.71-13.36-4.34l-.02-.03c-1.54-2.3-2.3-4.83-2.25-7.16,2.64,1.02,5.42,.95,7.58-.5l134.53-90.12c6.49-4.35,7.25-14.61,1.73-22.86Z"/>
      <path class="cls-18" d="M72.03,967.69c-8.84-20.07-20.85-38-36.05-53.81l123.89-83c2.67-1.79,6.68-.49,8.95,2.9l27.82,41.52c2.27,3.39,1.95,7.59-.72,9.38l-123.89,83Z"/>
      <path class="cls-3" d="M103.96,1037.99c.08,.12,.14,.24,.22,.36,9.95,14.86,27.5,20.55,39.19,12.72l139.12-93.2c-8.39-7.97-15.73-16.24-21.76-24.9,0,0-156.76,105.02-156.76,105.02Zm71.64-181.97l.82,1.22-120.8,80.93c6.32,9.28,11.82,19.1,16.42,29.53l123.89-83c2.67-1.79,2.99-5.99,.72-9.38l-15.44-23.05-5.6,3.75Z"/>
      <path class="cls-10" d="M120.19,1008.77l132.48-88.75,4.68,8.11-131.96,88.41c-1.68,1.13-4.22,.3-5.65-1.84s-1.23-4.8,.45-5.93Zm150.09-63.33l-132.88,89.02c-1.68,1.13-4.2,.34-5.65-1.84s-1.23-4.8,.45-5.93l132.12-88.51,5.96,7.25Zm-93.5-68.04l-112.08,75.09-4.74-8.07,111.62-74.78c1.71-1.15,4.2-.34,5.65,1.84,1.43,2.13,1.26,4.78-.45,5.93Zm-123.66,56.81l-5.63-7.48,112.05-75.07c1.71-1.15,4.22-.3,5.65,1.84s1.26,4.78-.45,5.93l-111.62,74.78Z"/>
    </g>
    <g id="Books-2" data-name="Books">
      <path class="cls-9" d="M1708.51,246.17h0c9.95,14.86,27.5,20.55,39.19,12.72l141.93-95.08c3.98-2.67,9.95-.73,13.34,4.33h0c3.39,5.06,2.91,11.32-1.07,13.98l-145.48,97.46c-18.87,12.64-47.4,5.53-64.73-17.52-9.95-13.24-14.27-28.6-13.28-42.14,.96-12.51,6.48-23.51,16.31-30.09l146.56-98.18c3.98-2.67,9.95-.73,13.34,4.33l.03,.05c3.39,5.06,2.91,11.32-1.07,13.98l-141.93,95.08c-11.69,7.83-13.1,26.23-3.15,41.09Z"/>
      <path class="cls-17" d="M1854.61,95.98l.05,.07c1.89,2.82,2.57,6,2.13,8.73-2.14-.51-4.29-.26-6.07,.93l-146.58,98.2c-9.81,6.57-15.32,17.58-16.31,30.09-.75,10.11,1.5,21.24,6.81,31.68-1.01-1.16-1.97-2.36-2.93-3.61-9.96-13.24-14.3-28.6-13.29-42.12,.96-12.54,6.49-23.51,16.31-30.09l146.58-98.2c3.97-2.66,9.93-.73,13.31,4.32Z"/>
      <path class="cls-4" d="M1902.95,168.13c1.7,2.54,2.41,5.35,2.24,7.91-.19,2.52-1.29,4.74-3.29,6.08l-145.5,97.47c-18.87,12.64-47.38,5.51-64.72-17.57-2.54-3.38-4.71-6.85-6.48-10.44,17.46,20.16,43.93,25.87,61.77,13.92l145.5-97.47c1.76-1.18,2.82-3.04,3.19-5.17,2.7,.58,5.4,2.45,7.29,5.27Z"/>
      <path class="cls-18" d="M1850.77,111.89c5.84,19.77,18.8,37.42,36.05,53.81l-139.12,93.2c-11.69,7.83-29.24,2.14-39.19-12.72h0c-9.95-14.86-8.55-33.25,3.15-41.09l139.12-93.2Z"/>
      <path class="cls-1" d="M1820.38,105.65l-134.52,90.12c-3.98,2.67-9.95,.73-13.34-4.33l-.03-.05c-3.39-5.06-2.91-11.32,1.07-13.98l126.7-84.88c2.67-1.79,2.99-5.99,.72-9.38l-27.82-41.52c-2.27-3.39-6.28-4.69-8.95-2.9l-126.7,84.88c-3.98,2.67-9.95,.73-13.34-4.33h0c-3.39-5.06-2.91-11.32,1.07-13.98L1759.76,15.16c6.51-4.36,16.27-1.19,21.81,7.08l40.56,60.55c5.54,8.27,4.75,18.5-1.75,22.86Z"/>
      <path class="cls-13" d="M1781.57,22.26l8.06,12.02c-5.55-8.28-15.31-11.45-21.8-7.1l-134.53,90.12c-1.97,1.32-3.09,3.57-3.31,6.1-.02,.21-.04,.47,0,.7-2.19-.87-4.27-2.52-5.84-4.85-1.7-2.54-2.41-5.35-2.22-7.87,.22-2.54,1.34-4.78,3.31-6.1L1759.77,15.16c6.49-4.35,16.25-1.18,21.8,7.1Z"/>
      <path class="cls-12" d="M1814.06,70.76l8.06,12.02c5.52,8.25,4.76,18.51,20.23,8.15l-134.53,90.12c-25.93,17.37-31.93,15.42-35.32,10.37l-.02-.03c-1.54-2.3-2.3-4.83-2.25-7.16,2.64,1.02,5.42,.95,7.58-.5l134.53-90.12c6.49-4.35,7.25-14.61,1.73-22.86Z"/>
      <path class="cls-18" d="M1676.36,175.52c-8.84-20.07-20.85-38-36.05-53.81l123.89-83c2.67-1.79,6.68-.49,8.95,2.9l27.82,41.52c2.27,3.39,1.95,7.59-.72,9.38l-123.89,83Z"/>
      <path class="cls-3" d="M1708.29,245.82c.08,.12,.14,.24,.22,.36,9.95,14.86,27.5,20.55,39.19,12.72l139.12-93.2c-8.39-7.97-15.73-16.24-21.76-24.9,0,0-156.76,105.02-156.76,105.02Zm71.64-181.97l.82,1.22-120.8,80.93c6.32,9.28,11.82,19.1,16.42,29.53l123.89-83c2.67-1.79,2.99-5.99,.72-9.38l-15.44-23.05-5.6,3.75Z"/>
      <path class="cls-10" d="M1724.52,216.6l132.48-88.75,4.68,8.11-131.96,88.41c-1.68,1.13-4.22,.3-5.65-1.84s-1.23-4.8,.45-5.93Zm150.09-63.33l-132.88,89.02c-1.68,1.13-4.2,.34-5.65-1.84s-1.23-4.8,.45-5.93l132.12-88.51,5.96,7.25Zm-93.5-68.04l-112.08,75.09-4.74-8.07,111.62-74.78c1.71-1.15,4.2-.34,5.65,1.84,1.43,2.13,1.26,4.78-.45,5.93Zm-123.66,56.81l-5.63-7.48,112.05-75.07c1.71-1.15,4.22-.3,5.65,1.84s1.26,4.78-.45,5.93l-111.62,74.78Z"/>
    </g>
    <g id="Books-3" data-name="Books">
      <path class="cls-9" d="M1825.62,1027.17h0c-9.95,14.86-27.5,20.55-39.19,12.72l-141.93-95.08c-3.98-2.67-9.95-.73-13.34,4.33h0c-3.39,5.06-2.91,11.32,1.07,13.98l145.48,97.46c18.87,12.64,47.4,5.53,64.73-17.52,9.95-13.24,14.27-28.6,13.28-42.14-.96-12.51-6.48-23.51-16.31-30.09l-146.56-98.18c-3.98-2.67-9.95-.73-13.34,4.33l-.03,.05c-3.39,5.06-2.91,11.32,1.07,13.98l141.93,95.08c11.69,7.83,13.1,26.23,3.15,41.09Z"/>
      <path class="cls-17" d="M1679.51,876.98l-.05,.07c-1.89,2.82-2.57,6-2.13,8.73,2.14-.51,4.29-.26,6.07,.93l146.58,98.2c9.81,6.57,15.32,17.58,16.31,30.09,.75,10.11-1.5,21.24-6.81,31.68,1.01-1.16,1.97-2.36,2.93-3.61,9.96-13.24,14.3-28.6,13.29-42.12-.96-12.54-6.49-23.51-16.31-30.09l-146.58-98.2c-3.97-2.66-9.93-.73-13.31,4.32Z"/>
      <path class="cls-4" d="M1631.17,949.13c-1.7,2.54-2.41,5.35-2.24,7.91,.19,2.52,1.29,4.74,3.29,6.08l145.5,97.47c18.87,12.64,47.38,5.51,64.72-17.57,2.54-3.38,4.71-6.85,6.48-10.44-17.46,20.16-43.93,25.87-61.77,13.92l-145.5-97.47c-1.76-1.18-2.82-3.04-3.19-5.17-2.7,.58-5.4,2.45-7.29,5.27Z"/>
      <path class="cls-18" d="M1683.35,892.89c-5.84,19.77-18.8,37.42-36.05,53.81l139.12,93.2c11.69,7.83,29.24,2.14,39.19-12.72h0c9.95-14.86,8.55-33.25-3.15-41.09l-139.12-93.2Z"/>
      <path class="cls-1" d="M1713.75,886.65l134.52,90.12c3.98,2.67,9.95,.73,13.34-4.33l.03-.05c3.39-5.06,2.91-11.32-1.07-13.98l-126.7-84.88c-2.67-1.79-2.99-5.99-.72-9.38l27.82-41.52c2.27-3.39,6.28-4.69,8.95-2.9l126.7,84.88c3.98,2.67,9.95,.73,13.34-4.33h0c3.39-5.06,2.91-11.32-1.07-13.98l-134.52-90.12c-6.51-4.36-16.27-1.19-21.81,7.08l-40.56,60.55c-5.54,8.27-4.75,18.5,1.75,22.86Z"/>
      <path class="cls-13" d="M1752.55,803.26l-8.06,12.02c5.55-8.28,15.31-11.45,21.8-7.1l134.53,90.12c1.97,1.32,3.09,3.57,3.31,6.1,.02,.21,.04,.47,0,.7,2.19-.87,4.27-2.52,5.84-4.85,1.7-2.54,2.41-5.35,2.22-7.87-.22-2.54-1.34-4.78-3.31-6.1l-134.53-90.12c-6.49-4.35-16.25-1.18-21.8,7.1Z"/>
      <path class="cls-12" d="M1720.07,851.76l-8.06,12.02c-5.52,8.25-4.76,18.51,1.73,22.86l134.53,90.12c3.97,2.66,9.98,.71,13.36-4.34l.02-.03c1.54-2.3,2.3-4.83,2.25-7.16-2.64,1.02-5.42,.95-7.58-.5l-134.53-90.12c-6.49-4.35-7.25-14.61-1.73-22.86Z"/>
      <path class="cls-18" d="M1857.76,956.52c8.84-20.07,20.85-38,36.05-53.81l-123.89-83c-2.67-1.79-6.68-.49-8.95,2.9l-27.82,41.52c-2.27,3.39-1.95,7.59,.72,9.38l123.89,83Z"/>
      <path class="cls-3" d="M1669.07,921.79c-6.03,8.66-13.38,16.94-21.76,24.9l139.12,93.2c11.69,7.83,29.24,2.14,39.19-12.72,.08-.12,.14-.24,.22-.36,0,0-156.76-105.02-156.76-105.02Zm79.52-80.71l-15.44,23.05c-2.27,3.39-1.95,7.59,.72,9.38l123.89,83c4.59-10.43,10.1-20.25,16.42-29.53l-120.8-80.93,.82-1.22-5.6-3.75Z"/>
      <path class="cls-10" d="M1810.06,1003.53c-1.43,2.13-3.97,2.96-5.65,1.84l-131.96-88.41,4.68-8.11,132.48,88.75c1.68,1.13,1.91,3.75,.45,5.93Zm-144.58-76.5l132.12,88.51c1.68,1.13,1.88,3.79,.45,5.93s-3.97,2.96-5.65,1.84l-132.88-89.02,5.96-7.25Zm87.08-66.72c1.46-2.17,3.94-2.98,5.65-1.84l111.62,74.78-4.74,8.07-112.08-75.09c-1.71-1.15-1.88-3.79-.45-5.93Zm12.49-12.04c-1.71-1.15-1.88-3.79-.45-5.93s3.94-2.98,5.65-1.84l112.05,75.07-5.63,7.48-111.62-74.78Z"/>
    </g>
    <g id="Books-4" data-name="Books">
      <path class="cls-9" d="M214.62,243.17h0c-9.95,14.86-27.5,20.55-39.19,12.72L33.5,160.81c-3.98-2.67-9.95-.73-13.34,4.33h0c-3.39,5.06-2.91,11.32,1.07,13.98l145.48,97.46c18.87,12.64,47.4,5.53,64.73-17.52,9.95-13.24,14.27-28.6,13.28-42.14-.96-12.51-6.48-23.51-16.31-30.09L81.85,88.64c-3.98-2.67-9.95-.73-13.34,4.33l-.03,.05c-3.39,5.06-2.91,11.32,1.07,13.98l141.93,95.08c11.69,7.83,13.1,26.23,3.15,41.09Z"/>
      <path class="cls-17" d="M68.52,92.98l-.05,.07c-1.89,2.82-2.57,6-2.13,8.73,2.14-.51,4.29-.26,6.07,.93l146.58,98.2c9.81,6.57,15.32,17.58,16.31,30.09,.75,10.11-1.5,21.24-6.81,31.68,1.01-1.16,1.97-2.36,2.93-3.61,9.96-13.24,14.3-28.6,13.29-42.12-.96-12.54-6.49-23.51-16.31-30.09L81.84,88.65c-3.97-2.66-9.93-.73-13.31,4.32Z"/>
      <path class="cls-4" d="M20.18,165.13c-1.7,2.54-2.41,5.35-2.24,7.91,.19,2.52,1.29,4.74,3.29,6.08l145.5,97.47c18.87,12.64,47.38,5.51,64.72-17.57,2.54-3.38,4.71-6.85,6.48-10.44-17.46,20.16-43.93,25.87-61.77,13.92L30.67,165.04c-1.76-1.18-2.82-3.04-3.19-5.17-2.7,.58-5.4,2.45-7.29,5.27Z"/>
      <path class="cls-18" d="M72.36,108.89c-5.84,19.77-18.8,37.42-36.05,53.81l139.12,93.2c11.69,7.83,29.24,2.14,39.19-12.72h0c9.95-14.86,8.55-33.25-3.15-41.09L72.36,108.89Z"/>
      <path class="cls-1" d="M102.75,102.65l134.52,90.12c3.98,2.67,9.95,.73,13.34-4.33l.03-.05c3.39-5.06,2.91-11.32-1.07-13.98L122.87,89.52c-2.67-1.79-2.99-5.99-.72-9.38l27.82-41.52c2.27-3.39,6.28-4.69,8.95-2.9l126.7,84.88c3.98,2.67,9.95,.73,13.34-4.33h0c3.39-5.06,2.91-11.32-1.07-13.98L163.37,12.16c-6.51-4.36-16.27-1.19-21.81,7.08l-40.56,60.55c-5.54,8.27-4.75,18.5,1.75,22.86Z"/>
      <path class="cls-13" d="M141.56,19.26l-8.06,12.02c5.55-8.28,15.31-11.45,21.8-7.1l134.53,90.12c1.97,1.32,3.09,3.57,3.31,6.1,.02,.21,.04,.47,0,.7,2.19-.87,4.27-2.52,5.84-4.85,1.7-2.54,2.41-5.35,2.22-7.87-.22-2.54-1.34-4.78-3.31-6.1L163.36,12.16c-6.49-4.35-16.25-1.18-21.8,7.1Z"/>
      <path class="cls-12" d="M109.07,67.76l-8.06,12.02c-5.52,8.25-4.76,18.51,1.73,22.86l134.53,90.12c3.97,2.66,9.98,.71,13.36-4.34l.02-.03c1.54-2.3,2.3-4.83,2.25-7.16-2.64,1.02-5.42,.95-7.58-.5L110.8,90.62c-6.49-4.35-7.25-14.61-1.73-22.86Z"/>
      <path class="cls-18" d="M246.77,172.52c8.84-20.07,20.85-38,36.05-53.81L158.92,35.71c-2.67-1.79-6.68-.49-8.95,2.9l-27.82,41.52c-2.27,3.39-1.95,7.59,.72,9.38l123.89,83Z"/>
      <path class="cls-3" d="M58.08,137.79c-6.03,8.66-13.38,16.94-21.76,24.9l139.12,93.2c11.69,7.83,29.24,2.14,39.19-12.72,.08-.12,.14-.24,.22-.36,0,0-156.76-105.02-156.76-105.02ZM137.6,57.09l-15.44,23.05c-2.27,3.39-1.95,7.59,.72,9.38l123.89,83c4.59-10.43,10.1-20.25,16.42-29.53L142.39,62.06l.82-1.22-5.6-3.75Z"/>
      <path class="cls-10" d="M199.07,219.53c-1.43,2.13-3.97,2.96-5.65,1.84L61.45,132.96l4.68-8.11,132.48,88.75c1.68,1.13,1.91,3.75,.45,5.93ZM54.49,143.02l132.12,88.51c1.68,1.13,1.88,3.79,.45,5.93s-3.97,2.96-5.65,1.84L48.52,150.27l5.96-7.25Zm87.08-66.72c1.46-2.17,3.94-2.98,5.65-1.84l111.62,74.78-4.74,8.07-112.08-75.09c-1.71-1.15-1.88-3.79-.45-5.93Zm12.49-12.04c-1.71-1.15-1.88-3.79-.45-5.93s3.94-2.98,5.65-1.84l112.05,75.07-5.63,7.48-111.62-74.78Z"/>
    </g>
  </g>
  <g id="Layer_3" data-name="Layer 3">
    <g id="Online_Cloud" data-name="Online Cloud">
      <path class="cls-2" d="M1007.27,611.43c0,15.03-13.08,27.23-29.22,27.25h-110.5c-19.81,0-35.86-14.95-35.86-33.38s16.06-33.38,35.86-33.38c2.09,0,4.18,.17,6.24,.51,3.76-26.69,30.05-45.49,58.72-41.99,25.92,3.16,45.36,23.65,45.55,47.98,0,1.93-.14,3.85-.4,5.76h.4c16.15,.03,29.22,12.22,29.22,27.25Z"/>
    </g>
  </g>
  <g id="Layer_5" data-name="Layer 5">
    <text class="cls-14" transform="translate(390 259.51)"><tspan x="0" y="0">Many Variety of Books!</tspan></text>
    <text class="cls-15" transform="translate(217.49 472.24)"><tspan x="0" y="0">We Have Best Seller’s!</tspan></text>
    <text class="cls-16" transform="translate(381 658.75)"><tspan x="0" y="0">E</tspan><tspan class="cls-5" x="103.76" y="0">x</tspan><tspan class="cls-6" x="167.23" y="0">clusive Specials!</tspan></text>
  </g>
  <g id="Layer_6" data-name="Layer 6">
    <g id="Offer">
      <path class="cls-8" d="M603.49,869.43h155.69v137.7h-155.69l55.82-68.85-55.82-68.85Zm712.99,0h-155.69v137.7h155.69l-55.82-68.85,55.82-68.85Z"/>
      <path class="cls-8" d="M717.96,861.97v105.21c0,8.98,7.28,16.27,16.27,16.27h451.48c8.98,0,16.27-7.28,16.27-16.27v-105.21c0-8.98-7.28-16.27-16.27-16.27h-451.48c-8.98,0-16.27,7.28-16.27,16.27Z"/>
      <path class="cls-2" d="M846.62,879.05c-15.21,0-23.51,6.35-23.51,17.47v36.1c0,11.12,8.3,17.45,23.51,17.45s23.48-6.35,23.48-17.45v-36.1c0-11.1-8.3-17.47-23.48-17.47Zm33.53,.8v69.41h15.48v-28.66h19.98v-9.9h-19.98v-20.93h25.47v-9.92s-40.95,0-40.95,0Zm48.4,0v69.41h15.48v-28.66h19.98v-9.9h-19.98v-20.93h25.47v-9.92s-40.95,0-40.95,0Zm48.37,0v69.41h42.17v-9.9h-26.69v-20.33h21.2v-9.9h-21.2v-19.36h26.69v-9.92h-42.17Zm51.66,0v69.41h15.48v-28.27h5.33c7.02,0,10.15,2.39,10.15,8.84v10.91c0,5.64,.53,6.73,1.4,8.5h15.72c-1.54-2.58-1.64-5.06-1.64-8.45v-10.65c0-7.23-2.57-12.5-10.31-14.76,6.89-2.3,10.15-6.97,10.15-14.11v-5.42c0-10.72-6.89-15.99-22.93-15.99h-23.35v-.02Zm-181.96,9.12c4.9,0,8,1.91,8,6.86v37.48c0,4.97-3.1,6.82-8,6.82s-8.03-1.87-8.03-6.82v-37.48c0-4.95,3.1-6.86,8.03-6.86Zm197.44,.8h7.45c5.49,0,7.87,2.19,7.87,7.16v6.82c0,5.55-3.5,7.34-9.28,7.34h-6.04v-21.32Z"/>
      <path class="cls-11" d="M717.99,827.02c-14.64,0-26.51,8.37-26.51,18.68v5.04h-88c-14.64,0-26.49,8.38-26.48,18.7,0,3.24,1.2,6.42,3.48,9.23l48.29,59.6-48.29,59.6c-7.25,8.97-2.81,20.38,9.91,25.48,4,1.61,8.52,2.45,13.12,2.45h155.67c14.64,0,26.51-8.37,26.51-18.68v-4.99h348.6v4.99c0,10.32,11.87,18.68,26.51,18.68h155.67c14.64,.02,26.53-8.33,26.55-18.65,0-3.26-1.2-6.47-3.49-9.3l-48.32-59.6,48.29-59.58c7.26-8.96,2.84-20.37-9.87-25.49-4.01-1.61-8.55-2.46-13.16-2.46h-87.94v-5.04c0-10.32-11.87-18.68-26.51-18.68h-484.04l.03,.02Zm0,18.68h483.99v23.73h114.5l-55.82,68.85,55.79,68.85h-155.67v-23.67h-401.61v23.67h-155.69l55.79-68.85-55.79-68.87h114.45v-23.73l.05,.02Z"/>
    </g>
  </g>
</svg>