<?xml version="1.0" encoding="utf-8"?>
<!-- Generator: Adobe Illustrator 27.0.1, SVG Export Plug-In . SVG Version: 6.00 Build 0)  -->
<svg version="1.1" id="Layer_1" xmlns="http://www.w3.org/2000/svg" xmlns:xlink="http://www.w3.org/1999/xlink" x="0px" y="0px"
	 viewBox="0 0 1920 1080" style="enable-background:new 0 0 1920 1080;" xml:space="preserve">
<style type="text/css">
	.st0{fill:#454545;}
	.st1{font-family:'CooperBlack';}
	.st2{font-size:72px;}
	.st3{fill:#E1E6FB;}
	.st4{fill:#BAC5F4;}
	.st5{fill:#B0C0F4;}
	.st6{fill:#FFFFFF;}
	.st7{fill:none;stroke:#FFFFFF;stroke-width:3;stroke-linecap:round;stroke-linejoin:round;}
	.st8{fill:#424242;}
	.st9{fill:#2D4356;}
	.st10{fill:#FFFFFF;stroke:#424242;stroke-width:12;stroke-miterlimit:10;}
	.st11{fill:#F8F9FE;}
	.st12{font-size:70.81px;}
	.st13{fill:none;stroke:#000000;stroke-width:4;stroke-miterlimit:10;}
</style>
<g id="Layer_2_00000026866661417459162530000002357173590222775703_">
	<text transform="matrix(1 0 0 1 69.78 117.88)" class="st0 st1 st2">Buy One G</text>
	<text transform="matrix(1 0 0 1 450.49 117.88)" class="st0 st1 st2">e</text>
	<text transform="matrix(1 0 0 1 488.21 117.88)" class="st0 st1 st2">t One</text>
	<text transform="matrix(1 0 0 1 69.78 204.28)" class="st0 st1 st2">50% O</text>
	<text transform="matrix(1 0 0 1 288.59 204.28)" class="st0 st1 st2">f</text>
	<text transform="matrix(1 0 0 1 319.46 204.28)" class="st0 st1 st2">f On Special </text>
	<text transform="matrix(1 0 0 1 69.78 290.68)" class="st0 st1 st2">Books</text>
	<polygon class="st3" points="978.7,974.4 989.6,964.8 982.7,962.2 975.7,972.9 975.5,972.9 968.4,962.3 961.4,964.9 972.2,974.3 
		972.2,974.4 955.3,973 955.3,978.2 972.3,976.7 972.3,976.9 961.4,986.2 967.9,989 975.4,978.2 975.6,978.2 982.5,988.9 
		989.7,986.2 978.7,977 978.7,976.8 996,978.2 996,973 978.7,974.5 	"/>
</g>
<g id="Layer_1_00000044870307447343329300000010198868366536261280_">
	<g id="Study_room">
		<path class="st3" d="M1.7,607.1c0,0,17.8-241.7,312.9-208.7S616.4,298.6,769.3,294c147.1-4.4,396.8,437.5,55.3,657
			c-292.4,187.9-554.5,152.7-695.4,8.8S1.7,607.1,1.7,607.1z"/>
		<g>
			<path class="st4" d="M266.9,666.5v26.7h-10.4l-11.8-26.7h-26.9V575l264.4,1v90.8h-27.4l-10.7,26.5h-10.3l1.1-26.7L266.9,666.5
				L266.9,666.5L266.9,666.5z"/>
			<path class="st5" d="M232.6,583.9h233.1v35H232.6V583.9z"/>
			<path class="st3" d="M239.8,587.4h12v27.9h-12V587.4z M257.9,587.4h12v27.9h-12V587.4z"/>
			<path class="st3" d="M273,593.4l8.4-5.5l30.6,19.6l-8.4,5.5L273,593.4z"/>
			<path class="st3" d="M317,597.8h48.1v5.6H317V597.8z M317,606.1h48.1v9.2H317V606.1z"/>
			<path class="st5" d="M232.6,623.8h233.1v35H232.6V623.8z"/>
			<path class="st3" d="M282.5,627.4h7.4v27.9h-7.4V627.4z M271.7,635.8h7.4v19.5h-7.4V635.8z M292.6,627.4h12v27.9h-12V627.4z"/>
			<path class="st3" d="M379.5,653.6l20.8-24.4l10.5,3.8L390,657.4L379.5,653.6z"/>
			<path class="st3" d="M412.5,637.7h48.1v5.6h-48.1V637.7z M412.5,646h48.1v9.2h-48.1V646z"/>
			<path class="st6" d="M357.4,558h48.1v5.6h-48.1V558z M357.4,566.3h48.1v9.2h-48.1V566.3z"/>
		</g>
		<path class="st4" d="M499.3,693.2h277.5V433.7H495.6L499.3,693.2L499.3,693.2z"/>
		<path class="st5" d="M514.3,445.7h242.1V521H514.3V445.7L514.3,445.7z M515.2,610.1h242.1v75.3H515.2V610.1z M515.2,528.6h242.1
			v75.3H515.2V528.6z"/>
		<path class="st4" d="M520.9,531.9h229.5v67.6H520.9V531.9z"/>
		<path class="st3" d="M527.6,454.7h22.8V518h-22.8V454.7z M557.7,454.7h22.8V518h-22.8V454.7z M562.8,619.4h22.8v63.3h-22.8V619.4z
			"/>
		<path class="st3" d="M593.5,682.2l0.1-10.8l97.7,0.5l-0.1,10.8L593.5,682.2z"/>
		<path class="st3" d="M696.4,678.8l41.9-62.3l15.4,4.3l-41.9,62.3L696.4,678.8z"/>
		<path class="st3" d="M594.7,670.3l0.1-7.8l97.7,0.7l-0.1,7.8L594.7,670.3z"/>
		<ellipse class="st5" cx="574.2" cy="676.2" rx="5.1" ry="3.3"/>
		<ellipse class="st5" cx="603.2" cy="677.2" rx="3.9" ry="2.5"/>
		<ellipse class="st5" cx="707.3" cy="676.2" rx="3.9" ry="2.5"/>
		<path class="st3" d="M648.9,516.1l0.3-14.8l97.7,0.9l-0.3,14.8L648.9,516.1z"/>
		<path class="st3" d="M648.9,499.8l0.2-8.4l97.7,0.9l-0.2,8.4L648.9,499.8z"/>
		<ellipse class="st5" cx="569.1" cy="507.7" rx="5.1" ry="3.3"/>
		<ellipse class="st5" cx="734.2" cy="509.8" rx="5.1" ry="3.3"/>
		<ellipse class="st5" cx="734.2" cy="496.6" rx="3.2" ry="2.1"/>
		<ellipse class="st5" cx="539" cy="507.7" rx="5.1" ry="3.3"/>
		<path class="st5" d="M629.7,531.3h5.7v69.5h-5.7V531.3z"/>
		<ellipse class="st5" cx="613.4" cy="568.5" rx="4.2" ry="2.8"/>
		<ellipse class="st5" cx="648" cy="568.5" rx="4.2" ry="2.8"/>
		<g>
			<path class="st6" d="M687.3,938l23.7-60.7h-23.7l-7.6,60.7H687.3z M821.6,876.1l26.5-3.7l3.8,54.5h-8.5L821.6,876.1L821.6,876.1z
				"/>
			<path class="st4" d="M685.4,827.1c0,0-43.5,6.1-42.6,25.1c1,19,19.9,25.7,82.3,27s119.2-2.5,140-11.6c20.8-9.2,26.5-36.8,24.6-46
				s-16.1-57,0-84s22.7-44.1,20.8-46.6s-12.3-19.6-45.4-1.8C832,707,786.6,739.5,780,777.4c-1.7,9.8-29.2,3.1-47.3,3.1
				s-39.7-1.8-53,11.6C665.6,806.5,669.3,821,685.4,827.1L685.4,827.1L685.4,827.1z"/>
			<path class="st5" d="M659.8,833.8c0,0,118.1,23.5,173.1,11c57.8-13.1,53.1,1.3,56.3-10.2c1.7-6.2,1.2-16.6-1-19.5
				c-1.6-2.1-24.9,3.7-46.8,8.8c-40.6,9.6-119.2,5.6-139.1-3.6s-25.8-23.7-25.8-23.7s-15.1,16.2,5,27.9c5.8,3.4-5.3,4.2-12.4,5.9
				S659.8,833.8,659.8,833.8L659.8,833.8L659.8,833.8z"/>
		</g>
		<g>
			<path class="st3" d="M104.9,937.1l29.3,56.9h42.1l24.3-56.9L147,925L104.9,937.1z"/>
			<path class="st4" d="M131.1,890.6c0,0-110.1,8.5-131.1,79.3c0,0,182.7-19.8,164.4-50.4S131.1,890.6,131.1,890.6L131.1,890.6
				L131.1,890.6z"/>
			<path class="st4" d="M179.3,906.5c0,0-13.8-81-123.2-96.1c0,0,31.7,134.3,78.8,120.7C182,917.5,179.3,906.5,179.3,906.5
				L179.3,906.5z"/>
			<path class="st4" d="M137,894.2c0,0,31.5-54.5,100.9-49.8c22.4,1.5,10,30,10,30l-20.8-14.3c0,0-24.2,63.8-47.8,62.2
				S137,894.2,137,894.2L137,894.2L137,894.2z"/>
			<path class="st4" d="M149.6,932.1c0,0,92.9,24.3,78.1,69.6c0,0,49.3-31.9,1.6-76.6s-63.6-16.8-63.6-16.8L149.6,932.1L149.6,932.1
				z"/>
			<path class="st4" d="M186.8,885.6c0,0,93.7-10.4,107.8-2.3c14.1,8.1-10.4,43.3-27.5,48.8c0,0,6.7-13.7,6.7-22.4
				s-49.1,17.8-54.2,17.8s-40.1-30.8-40.1-30.8L186.8,885.6L186.8,885.6z"/>
			<path class="st7" d="M144.8,914.9c0,0,46.6-47.7,67.4-60c11.8-7,24.3-0.7,32.2,6 M144.8,914.9c0,0,98.5-24.4,126.6-25.6
				c15.9-0.7,19.6,8.7,8.3,28.1 M144.8,914.9c0,0,44.7,9.6,67.5,20.3c8.3,3.9,26.4,16.1,25.1,38.5 M75.5,825.8
				c0,0,9.7,17.1,30.8,29.2c11.9,6.8,31.5,36.5,38.5,60"/>
			<path class="st7" d="M29,955.9c0,0,16.7-15.7,40.2-25.7c22.5-9.6,40.7-17.2,75.6-15.3"/>
		</g>
	</g>
	<g id="Book">
		<path class="st8" d="M1334.2,321.2c-105-22.5-234.3,4.8-239.8,6c-3.2,0.7-5.1,3.3-4.2,5.9c0.7,2.1,3,3.6,5.7,3.6
			c0.5,0,1,0,1.5-0.2c1.3-0.3,131.8-27.8,233.8-6c3.2,0.7,6.4-0.9,7.2-3.5C1339.3,324.5,1337.4,321.9,1334.2,321.2z M1334.2,360.1
			c-105-22.5-234.3,4.8-239.8,6c-3.2,0.7-5.1,3.3-4.2,5.9c0.7,2.1,3,3.6,5.7,3.6c0.5,0,1,0,1.5-0.2c1.3-0.3,131.8-27.8,233.8-6
			c3.2,0.7,6.4-0.9,7.2-3.5C1339.3,363.4,1337.4,360.8,1334.2,360.1z M1334.2,399c-105-22.5-234.3,4.8-239.8,6
			c-3.2,0.7-5.1,3.3-4.2,5.9c0.7,2.1,3,3.6,5.7,3.6c0.5,0,1,0,1.5-0.2c1.3-0.3,131.8-27.8,233.8-6c3.2,0.7,6.4-0.9,7.2-3.5
			S1337.4,399.7,1334.2,399z M1334.2,437.9c-105-22.5-234.3,4.8-239.8,6c-3.2,0.7-5.1,3.3-4.2,5.9c0.7,2.1,3,3.6,5.7,3.6
			c0.5,0,1,0,1.5-0.2c1.3-0.3,131.8-27.8,233.8-6c3.2,0.7,6.4-0.9,7.2-3.5S1337.4,438.6,1334.2,437.9z M1334.2,476.8
			c-105-22.5-234.3,4.8-239.8,6c-3.2,0.7-5.1,3.3-4.2,5.9c0.7,2.1,3,3.6,5.7,3.6c0.5,0,1,0,1.5-0.2c1.3-0.3,131.8-27.8,233.8-6
			c3.2,0.7,6.4-0.9,7.2-3.5S1337.4,477.5,1334.2,476.8z M1334.2,515.7c-105-22.5-234.3,4.8-239.8,6c-3.2,0.7-5.1,3.3-4.2,5.9
			c0.7,2.1,3,3.6,5.7,3.6c0.5,0,1,0,1.5-0.2c1.3-0.3,131.8-27.8,233.8-6c3.2,0.7,6.4-0.9,7.2-3.5S1337.4,516.4,1334.2,515.7
			L1334.2,515.7z M1334.2,554.6c-105-22.5-234.3,4.8-239.8,6c-3.2,0.7-5.1,3.3-4.2,5.9c0.7,2.1,3,3.6,5.7,3.6c0.5,0,1,0,1.5-0.2
			c1.3-0.3,131.8-27.8,233.8-6c3.2,0.7,6.4-0.9,7.2-3.5S1337.4,555.3,1334.2,554.6L1334.2,554.6z M1334.2,593.5
			c-105-22.5-234.3,4.8-239.8,6c-3.2,0.7-5.1,3.3-4.2,5.9c0.7,2.1,3,3.6,5.7,3.6c0.5,0,1,0,1.5-0.2c1.3-0.3,131.8-27.8,233.8-6
			c3.2,0.7,6.4-0.9,7.2-3.5S1337.4,594.2,1334.2,593.5L1334.2,593.5z M1334.2,632.4c-105-22.5-234.3,4.8-239.8,6
			c-3.2,0.7-5.1,3.3-4.2,5.9c0.7,2.1,3,3.6,5.7,3.6c0.5,0,1,0,1.5-0.2c1.3-0.3,131.8-27.8,233.8-6c3.2,0.7,6.4-0.9,7.2-3.5
			S1337.4,633.1,1334.2,632.4L1334.2,632.4z M1695.3,327.1c-5.4-1.2-134.7-28.5-239.8-6c-3.2,0.7-5.1,3.3-4.2,5.9
			c0.8,2.6,4.1,4.2,7.2,3.5c102-21.9,232.5,5.7,233.8,6c0.5,0.1,1,0.2,1.5,0.2c3.3,0,5.9-2.2,5.9-4.9
			C1699.7,329.6,1697.9,327.7,1695.3,327.1L1695.3,327.1z M1695.3,366c-5.4-1.2-134.7-28.5-239.8-6c-3.2,0.7-5.1,3.3-4.2,5.9
			c0.8,2.6,4.1,4.2,7.2,3.5c102-21.9,232.5,5.7,233.8,6c0.5,0.1,1,0.2,1.5,0.2c3.3,0,5.9-2.2,5.9-4.9
			C1699.7,368.5,1697.9,366.6,1695.3,366L1695.3,366z M1695.3,404.9c-5.4-1.2-134.7-28.5-239.8-6c-3.2,0.7-5.1,3.3-4.2,5.9
			c0.8,2.6,4.1,4.2,7.2,3.5c102-21.9,232.5,5.7,233.8,6c0.5,0.1,1,0.2,1.5,0.2c3.3,0,5.9-2.2,5.9-4.9
			C1699.7,407.4,1697.9,405.5,1695.3,404.9L1695.3,404.9z M1695.3,443.8c-5.4-1.2-134.7-28.5-239.8-6c-3.2,0.7-5.1,3.3-4.2,5.9
			c0.8,2.6,4.1,4.2,7.2,3.5l0,0c102-21.9,232.5,5.7,233.8,6c0.5,0.1,1,0.2,1.5,0.2c3.3,0,5.9-2.2,5.9-4.9
			C1699.7,446.3,1697.9,444.4,1695.3,443.8L1695.3,443.8z M1695.3,482.7c-5.4-1.2-134.7-28.5-239.8-6c-3.2,0.7-5.1,3.3-4.2,5.9
			c0.8,2.6,4.1,4.2,7.2,3.5c102-21.9,232.5,5.7,233.8,6c0.5,0.1,1,0.2,1.5,0.2c3.3,0,5.9-2.2,5.9-4.9
			C1699.7,485.2,1697.9,483.3,1695.3,482.7L1695.3,482.7z M1695.3,521.6c-5.4-1.2-134.7-28.5-239.8-6c-3.2,0.7-5.1,3.3-4.2,5.9
			c0.8,2.6,4.1,4.2,7.2,3.5c102-21.9,232.5,5.7,233.8,6c0.5,0.1,1,0.2,1.5,0.2c3.3,0,5.9-2.2,5.9-4.9
			C1699.7,524.1,1697.9,522.2,1695.3,521.6L1695.3,521.6z M1695.3,560.5c-5.4-1.2-134.7-28.5-239.8-6c-3.2,0.7-5.1,3.3-4.2,5.9
			c0.8,2.6,4.1,4.2,7.2,3.5c102-21.9,232.5,5.7,233.8,6c0.5,0.1,1,0.2,1.5,0.2c3.3,0,5.9-2.2,5.9-4.9
			C1699.7,563,1697.9,561.1,1695.3,560.5L1695.3,560.5z M1695.3,599.4c-5.4-1.2-134.7-28.5-239.8-6c-3.2,0.7-5.1,3.3-4.2,5.9
			c0.8,2.6,4.1,4.2,7.2,3.5c102-21.9,232.5,5.7,233.8,6c0.5,0.1,1,0.2,1.5,0.2c3.3,0,5.9-2.2,5.9-4.9
			C1699.7,601.9,1697.9,600,1695.3,599.4L1695.3,599.4z M1695.3,638.3c-5.4-1.2-134.7-28.5-239.8-6c-3.2,0.7-5.1,3.3-4.2,5.9
			c0.8,2.6,4.1,4.2,7.2,3.5c102-21.9,232.5,5.7,233.8,6c0.5,0.1,1,0.2,1.5,0.2c3.3,0,5.9-2.2,5.9-4.9
			C1699.7,640.8,1697.9,638.9,1695.3,638.3L1695.3,638.3z M1824,137.4c0-8.1-7.9-14.6-17.8-14.6s-17.8,6.5-17.8,14.6
			s7.9,14.6,17.8,14.6C1816,151.9,1824,145.4,1824,137.4z M1806.2,144.6c-4.9,0-8.9-3.3-8.9-7.3s4-7.3,8.9-7.3s8.9,3.3,8.9,7.3
			C1815.1,141.4,1811.1,144.6,1806.2,144.6z M1291.3,108.2c9.8,0,17.8-6.5,17.8-14.6s-7.9-14.6-17.8-14.6s-17.8,6.5-17.8,14.6
			C1273.5,101.6,1281.5,108.2,1291.3,108.2z M1291.3,86.3c4.9,0,8.9,3.3,8.9,7.3s-4,7.3-8.9,7.3s-8.9-3.3-8.9-7.3
			C1282.4,89.6,1286.4,86.3,1291.3,86.3z M1581.3,137.4c6.5,0,11.8-4.4,11.8-9.7s-5.3-9.7-11.8-9.7s-11.8,4.3-11.8,9.7
			C1569.5,133,1574.8,137.4,1581.3,137.4z M1581.3,122.8c3.3,0,5.9,2.2,5.9,4.9s-2.7,4.9-5.9,4.9s-5.9-2.2-5.9-4.9
			C1575.4,124.9,1578,122.8,1581.3,122.8z M1391.9,210.3c6.5,0,11.8-4.4,11.8-9.7s-5.3-9.7-11.8-9.7s-11.8,4.4-11.8,9.7
			S1385.4,210.3,1391.9,210.3z M1391.9,195.7c3.3,0,5.9,2.2,5.9,4.9s-2.7,4.9-5.9,4.9s-5.9-2.2-5.9-4.9S1388.6,195.7,1391.9,195.7z
			 M959.8,224.9c6.5,0,11.8-4.4,11.8-9.7s-5.3-9.7-11.8-9.7s-11.8,4.4-11.8,9.7S953.3,224.9,959.8,224.9z M959.8,210.3
			c3.3,0,5.9,2.2,5.9,4.9s-2.7,4.9-5.9,4.9s-5.9-2.2-5.9-4.9C953.9,212.5,956.6,210.3,959.8,210.3z"/>
		<ellipse class="st9" cx="912.5" cy="706.3" rx="11.8" ry="9.7"/>
		<path class="st9" d="M965.8,696.5H948c-6.5,0-11.8,4.3-11.8,9.7s5.3,9.7,11.8,9.7h17.8c6.5,0,11.8-4.3,11.8-9.7
			S972.3,696.5,965.8,696.5z M1847.7,696.5h-17.8c-6.5,0-11.8,4.3-11.8,9.7s5.3,9.7,11.8,9.7h17.8c6.5,0,11.8-4.3,11.8-9.7
			S1854.2,696.5,1847.7,696.5z"/>
		<ellipse class="st9" cx="1883.2" cy="706.3" rx="11.8" ry="9.7"/>
		<path class="st8" d="M1792.7,696.5h-17.1c0.6-1.8,0.9-3.7,0.9-5.6V308.6c0-13-13.4-26.4-28.6-30.9c-48.8-14.4-126.9-23.7-199-23.7
			c-56,0-108.3,5.6-140.4,18.9c-6.8,2.7-14.8,2.7-21.7,0c-32.1-13.3-84.4-18.9-140.4-18.9c-72,0-150.1,9.3-199,23.7
			c-15.2,4.5-28.6,17.8-28.6,30.9V691c0,1.9,0.3,3.8,1,5.6h-17.1c-6.5-0.7-12.5,3.1-13.4,8.5s3.8,10.3,10.3,11c1,0.1,2.1,0.1,3.1,0
			h789.8c6.5,0.7,12.5-3.1,13.4-8.5s-3.8-10.3-10.3-11C1794.8,696.4,1793.7,696.4,1792.7,696.5L1792.7,696.5z M1167.2,696.5
			c28.4-2.7,57-4.2,85.6-4.3c24.4-0.1,48.8,1.4,72.9,4.3H1167.2z M1469.9,696.5c24.1-3,48.5-4.4,72.9-4.3
			c28.6,0.2,57.2,1.6,85.6,4.3H1469.9z M1752.9,691c0,0.2,0,0.5-0.1,0.7c-0.2,0-0.3,0-0.5,0c-0.3,0-0.6,0-0.8-0.1l-11.2-1.5
			c-64.1-8.5-130.4-17.4-197.5-17.4c-43.5-0.5-86.9,4.2-128.7,14.1c-1.6,0.4-3.3,0.8-4.9,1.3c-2.1,0.5-3.8,1-5.5,1.3V375.6
			c0-2.7-2.7-4.9-5.9-4.9s-5.9,2.2-5.9,4.9v313.9c-1.4-0.3-2.9-0.7-4.5-1.2c-1.7-0.5-3.3-0.9-5-1.3c-42.1-10-85.7-14.8-129.5-14.3
			c-67.1,0-133.4,8.8-197.5,17.4l-11.2,1.5c-0.3,0-0.6,0.1-0.9,0.1c-0.2,0-0.3,0-0.5,0c-0.1-0.2-0.1-0.5-0.1-0.7V308.6
			c1.5-5.7,6.3-10.4,12.9-12.6c46.6-13.7,121.5-22.5,191-22.5c57.5,0,103.6,6,129.8,16.8c4.9,2,10.1,3.3,15.6,3.8v42.6
			c0,2.7,2.7,4.9,5.9,4.9s5.9-2.2,5.9-4.9v-42.6c5.4-0.5,10.7-1.8,15.6-3.8c26.2-10.8,72.3-16.8,129.8-16.8
			c69.5,0,144.4,8.9,191,22.5c6.6,2.1,11.5,6.9,12.9,12.6L1752.9,691L1752.9,691z"/>
		<polygon class="st3" points="1105.3,137.4 1114.1,127.9 1108.6,125.3 1102.9,136 1102.7,136 1097,125.4 1091.3,128.1 
			1100.1,137.3 1100.1,137.5 1086.4,136 1086.4,141.2 1100.2,139.8 1100.2,139.9 1091.3,149.2 1096.6,151.9 1102.7,141.2 
			1102.8,141.2 1108.4,151.9 1114.2,149.1 1105.3,140 1105.3,139.8 1119.3,141.2 1119.3,136 1105.3,137.6 		"/>
		<polygon class="st3" points="1195.3,234.9 1190.2,240.3 1193.2,241.8 1196.7,235.7 1196.8,235.7 1200,241.8 1203.4,240.2 
			1198.2,235 1198.2,234.9 1206.3,235.7 1206.3,232.7 1198.2,233.6 1198.2,233.5 1203.3,228 1200.1,226.5 1196.9,232.6 
			1196.8,232.6 1193.4,226.6 1190.2,228.1 1195.2,233.4 1195.2,233.5 1187.4,232.7 1187.4,235.7 1195.3,234.8 		"/>
		<polygon class="st3" points="1806.2,301.3 1806.2,296.2 1792.5,297.7 1792.5,297.5 1801.1,288.2 1795.7,285.7 1790.2,296.1 
			1790,296.1 1784.3,285.8 1778.8,288.4 1787.3,297.5 1787.3,297.6 1774,296.2 1774,301.3 1787.4,299.9 1787.4,300 1778.8,309.1 
			1784,311.8 1789.9,301.3 1790.1,301.3 1795.5,311.7 1801.2,309 1792.5,300.1 1792.5,299.9 		"/>
		<polygon class="st3" points="1502.8,151.7 1495.3,159.6 1499.8,161.9 1504.9,152.8 1505.1,152.8 1509.8,161.8 1514.7,159.5 
			1507.2,151.8 1507.2,151.6 1519,152.8 1519,148.4 1507.2,149.7 1507.2,149.6 1514.6,141.5 1509.9,139.4 1505.1,148.4 1505,148.4 
			1500.1,139.4 1495.3,141.7 1502.7,149.5 1502.7,149.6 1491.2,148.4 1491.2,152.8 1502.8,151.6 		"/>
		<path class="st3" d="M1600,740.3h-49.2c-6.5,0.4-11.4,5.1-10.9,10.5c0.5,4.8,5.1,8.6,10.9,9h49.2c6.5-0.4,11.4-5.1,10.9-10.5
			C1610.4,744.5,1605.8,740.7,1600,740.3z M1244.8,740.3h-49.2c-6.5,0.4-11.4,5.1-10.9,10.5c0.5,4.8,5.1,8.6,10.9,9h49.2
			c6.5-0.4,11.4-5.1,10.9-10.5C1255.3,744.5,1250.7,740.7,1244.8,740.3z M1516.2,740.3h-236.8c-6.5,0-11.8,4.3-11.8,9.7
			s5.3,9.7,11.8,9.7h94.3v9.7h-47c-6.5,0-11.8,4.3-11.8,9.7s5.3,9.7,11.8,9.7h148c6.5,0,11.8-4.3,11.8-9.7s-5.3-9.7-11.8-9.7h-52.9
			v-9.7h94.3c6.5,0,11.8-4.3,11.8-9.7S1522.7,740.3,1516.2,740.3L1516.2,740.3z"/>
	</g>
	<g id="Ribbon">
		<path class="st10" d="M1307.8,861.7c-2.4,0-4.8,0.4-6.9,1l-125.6,37.9c-1,0.3-1.9,0.6-2.7,1c-0.4,0.2-0.7,0.4-1,0.5
			c-0.8,0.4-1.4,0.9-2,1.4c-0.3,0.2-0.5,0.5-0.7,0.7c0,0,0,0-0.1,0c-0.2,0.2-0.4,0.5-0.6,0.8c0,0,0,0-0.1,0.1
			c-0.2,0.3-0.3,0.5-0.4,0.8c0,0,0,0-0.1,0c-0.1,0.2-0.1,0.3-0.2,0.5c0,0.1-0.1,0.2-0.1,0.3c0,0,0,0,0,0.1c-0.1,0.3-0.2,0.5-0.2,0.8
			l0,0c0,0.2-0.1,0.4-0.1,0.7v123.5c0,4.9,7,8.8,15.7,8.8h737.8v29c0,4.9,7.1,8.8,15.7,8.8c2.6,0,5.1-0.4,7.4-1l125.6-37.8
			c0,0,0.1,0,0.1-0.1c0.3-0.1,0.7-0.2,1-0.3c0.1-0.1,0.2-0.1,0.4-0.1c0.4-0.2,0.8-0.3,1.1-0.5l0.1-0.1c0.4-0.2,0.7-0.3,1-0.5
			c0,0,0.1,0,0.1-0.1c0.3-0.2,0.6-0.4,0.9-0.6c0,0,0.1,0,0.1-0.1c0.3-0.2,0.5-0.4,0.8-0.7c0,0,0,0,0.1-0.1c0.3-0.2,0.5-0.5,0.7-0.7
			c0,0,0,0,0.1-0.1c0.2-0.2,0.4-0.5,0.6-0.7c0,0,0-0.1,0.1-0.1c0.2-0.2,0.3-0.5,0.4-0.8c0,0,0-0.1,0.1-0.1c0.1-0.3,0.2-0.5,0.3-0.8
			v-0.1c0.1-0.3,0.1-0.5,0.2-0.8v-0.1c0-0.2,0.1-0.4,0.1-0.6V908.4c0-4.9-7-8.8-15.7-8.8H1324v-29c0-4.9-7.1-8.8-15.8-8.8
			C1308.1,861.7,1307.9,861.7,1307.8,861.7L1307.8,861.7z M1292.6,885.3v14.3h-47.3L1292.6,885.3z M1198.4,917.2H2046v78.7
			c0,0.2,0,0.4,0,0.6v26.6h-847.6v-77.6c0-0.2,0-0.4,0-0.6V917.2z M1951.9,1040.7h47.5l-47.5,14.3V1040.7z"/>
	</g>
	<rect x="1198" y="917" class="st8" width="848" height="106"/>
	<text transform="matrix(0.85 0 0 1 1214.8301 994.3799)" class="st11 st1 st12">BUY </text>
	<text transform="matrix(0.85 0 0 1 1369.334 994.3799)" class="st11 st1 st12">1</text>
	<text transform="matrix(0.85 0 0 1 1404.9238 994.3799)" class="st11 st1 st12">, GET 1 50% OFF</text>
	<polygon class="st3" points="962.2,539.3 971,529.8 965.5,527.2 959.8,537.9 959.7,537.9 953.9,527.3 948.2,530 957,539.3 
		957,539.4 943.3,538 943.3,543.2 957,541.7 957,541.9 948.2,551.1 953.5,553.9 959.6,543.2 959.7,543.2 965.3,553.8 971.1,551.1 
		962.2,541.9 962.2,541.8 976.2,543.2 976.2,538 962.2,539.5 	"/>
</g>
<g id="Layer_4">
	<polygon class="st3" points="136.2,1033.3 145,1023.8 139.5,1021.2 133.8,1031.9 133.6,1031.9 127.9,1021.3 122.2,1024 131,1033.3 
		131,1033.4 117.3,1032 117.3,1037.2 131.1,1035.7 131.1,1035.9 122.2,1045.1 127.5,1047.9 133.6,1037.2 133.7,1037.2 139.3,1047.8 
		145.1,1045.1 136.2,1035.9 136.2,1035.8 150.2,1037.2 150.2,1032 136.2,1033.5 	"/>
	<polygon class="st3" points="120.2,362.3 129,352.8 123.5,350.2 117.8,360.9 117.7,360.9 111.9,350.3 106.2,353 115,362.3 
		115,362.4 101.3,361 101.3,366.1 115.1,364.7 115.1,364.9 106.2,374.1 111.5,376.9 117.6,366.1 117.7,366.1 123.3,376.8 
		129.1,374.1 120.2,364.9 120.2,364.8 134.2,366.1 134.2,361 120.2,362.5 	"/>
	<polygon class="st3" points="962.1,47.8 970.9,38.5 965.3,36 959.7,46.4 959.5,46.4 953.8,36.1 948.2,38.7 956.9,47.7 956.9,47.9 
		943.3,46.5 943.3,51.5 957,50.1 957,50.3 948.2,59.3 953.5,62 959.5,51.5 959.6,51.5 965.2,61.9 970.9,59.2 962.1,50.3 962.1,50.2 
		976,51.5 976,46.5 962.1,48 	"/>
	<polygon class="st3" points="1783.2,834.2 1792,824.6 1786.5,822 1780.8,832.8 1780.7,832.8 1774.9,822.1 1769.2,824.8 1778,834.1 
		1778,834.3 1764.3,832.8 1764.3,838 1778.1,836.6 1778.1,836.7 1769.2,846.1 1774.5,848.9 1780.6,838 1780.7,838 1786.3,848.8 
		1792.1,846 1783.2,836.8 1783.2,836.7 1797.2,838 1797.2,832.8 1783.2,834.4 	"/>
	<path class="st13" d="M69.8,619.2c9.8,0,17.8-6.5,17.8-14.6s-8-14.6-17.8-14.6S52,596.5,52,604.6C52,612.6,60,619.1,69.8,619.2z"/>
	<path class="st13" d="M1018,1048c7.7,0,14-6,14-13.5s-6.3-13.5-14-13.5s-14,6-14,13.5C1004,1041.9,1010.3,1048,1018,1048z"/>
	<path class="st13" d="M173.8,1002.1c7.7,0,14-6.1,14-13.6s-6.3-13.6-14-13.6s-14,6.1-14,13.6S166.1,1002.1,173.8,1002.1z"/>
	<path class="st13" d="M31.8,49.1c7.7,0,14-6.1,14-13.6S39.5,22,31.8,22s-14,6.1-14,13.6C17.8,43,24.1,49.1,31.8,49.1z"/>
</g>
</svg>
